<svg xmlns="http://www.w3.org/2000/svg" viewBox="0 0 860 325" width="860" height="325" role="img" aria-labelledby="t d" lang="ja" font-family="'Noto Sans JP','Hiragino Sans','Hiragino Kaku Gothic ProN','Yu Gothic UI','Yu Gothic',Meiryo,'Noto Sans CJK JP',system-ui,-apple-system,'Segoe UI',sans-serif">
<title id="t">言語野の 3 つの実行の比較：v0、0.11.0、戻り道の試行</title>
<desc id="d">同じ ROI と TLF（非語の音読）の 3 つの実行。ROI 内の UC は v0 が 5、0.11.0 が 4、試行が 7。Collection は 0、0、3。接続の行は 17、14、21。文献は 19、17、21。照合済みの引用文は 0、14、21。FRG の GN は 8、2、4。FRG の深さは 3、2、3。X9 は v0 では測れず、0.11.0 が 3、試行が 0。付録 D の自動判定で違反したコードは v0 が 7、0.11.0 が 1、試行は測っていない。v0 の UC は自由な名前で、SABRA の単位に固定していない。</desc>
<defs><marker id="arrow-64748b" viewBox="0 0 10 10" refX="9" refY="5" markerWidth="8" markerHeight="8" orient="auto-start-reverse"><path d="M0 0 L10 5 L0 10 z" fill="#64748b"/></marker><marker id="arrow-3b82f6" viewBox="0 0 10 10" refX="9" refY="5" markerWidth="8" markerHeight="8" orient="auto-start-reverse"><path d="M0 0 L10 5 L0 10 z" fill="#3b82f6"/></marker><marker id="arrow-8b5cf6" viewBox="0 0 10 10" refX="9" refY="5" markerWidth="8" markerHeight="8" orient="auto-start-reverse"><path d="M0 0 L10 5 L0 10 z" fill="#8b5cf6"/></marker><marker id="arrow-10b981" viewBox="0 0 10 10" refX="9" refY="5" markerWidth="8" markerHeight="8" orient="auto-start-reverse"><path d="M0 0 L10 5 L0 10 z" fill="#10b981"/></marker><marker id="arrow-f59e0b" viewBox="0 0 10 10" refX="9" refY="5" markerWidth="8" markerHeight="8" orient="auto-start-reverse"><path d="M0 0 L10 5 L0 10 z" fill="#f59e0b"/></marker><marker id="arrow-ef4444" viewBox="0 0 10 10" refX="9" refY="5" markerWidth="8" markerHeight="8" orient="auto-start-reverse"><path d="M0 0 L10 5 L0 10 z" fill="#ef4444"/></marker></defs>
<rect width="860" height="325" fill="#ffffff"/>
<rect x="10" y="11" width="16" height="12" rx="2" fill="#f59e0b"/>
<text x="32" y="22" font-size="12" font-weight="400" fill="#475569" text-anchor="start"><tspan>v0（自由な名前）</tspan></text>
<rect x="149.2" y="11" width="16" height="12" rx="2" fill="#3b82f6"/>
<text x="171.2" y="22" font-size="12" font-weight="400" fill="#475569" text-anchor="start"><tspan>0.11.0</tspan></text>
<rect x="225.27999999999997" y="11" width="16" height="12" rx="2" fill="#4338ca"/>
<text x="247.27999999999997" y="22" font-size="12" font-weight="400" fill="#475569" text-anchor="start"><tspan>戻り道の試行</tspan></text>
<text x="150" y="64" font-size="12" font-weight="700" fill="#0f172a" text-anchor="end"><tspan>ROI 内の UC</tspan></text>
<rect x="160" y="42" width="142.9" height="12" rx="2" fill="#f59e0b"/>
<text x="308.8571428571429" y="52.5" font-size="11.5" font-weight="700" fill="#0f172a" text-anchor="start"><tspan>5</tspan></text>
<rect x="160" y="57" width="114.3" height="12" rx="2" fill="#3b82f6"/>
<text x="280.2857142857143" y="67.5" font-size="11.5" font-weight="700" fill="#0f172a" text-anchor="start"><tspan>4</tspan></text>
<rect x="160" y="72" width="200.0" height="12" rx="2" fill="#4338ca"/>
<text x="366" y="82.5" font-size="11.5" font-weight="700" fill="#0f172a" text-anchor="start"><tspan>7</tspan></text>
<text x="150" y="120" font-size="12" font-weight="700" fill="#0f172a" text-anchor="end"><tspan>Collection</tspan></text>
<rect x="160" y="98" width="2.0" height="12" rx="2" fill="#f59e0b"/>
<text x="168" y="108.5" font-size="11.5" font-weight="700" fill="#0f172a" text-anchor="start"><tspan>0</tspan></text>
<rect x="160" y="113" width="2.0" height="12" rx="2" fill="#3b82f6"/>
<text x="168" y="123.5" font-size="11.5" font-weight="700" fill="#0f172a" text-anchor="start"><tspan>0</tspan></text>
<rect x="160" y="128" width="200.0" height="12" rx="2" fill="#4338ca"/>
<text x="366" y="138.5" font-size="11.5" font-weight="700" fill="#0f172a" text-anchor="start"><tspan>3</tspan></text>
<text x="150" y="176" font-size="12" font-weight="700" fill="#0f172a" text-anchor="end"><tspan>接続の行</tspan></text>
<rect x="160" y="154" width="161.9" height="12" rx="2" fill="#f59e0b"/>
<text x="327.9047619047619" y="164.5" font-size="11.5" font-weight="700" fill="#0f172a" text-anchor="start"><tspan>17</tspan></text>
<rect x="160" y="169" width="133.3" height="12" rx="2" fill="#3b82f6"/>
<text x="299.3333333333333" y="179.5" font-size="11.5" font-weight="700" fill="#0f172a" text-anchor="start"><tspan>14</tspan></text>
<rect x="160" y="184" width="200.0" height="12" rx="2" fill="#4338ca"/>
<text x="366" y="194.5" font-size="11.5" font-weight="700" fill="#0f172a" text-anchor="start"><tspan>21</tspan></text>
<text x="150" y="232" font-size="12" font-weight="700" fill="#0f172a" text-anchor="end"><tspan>文献</tspan></text>
<rect x="160" y="210" width="181.0" height="12" rx="2" fill="#f59e0b"/>
<text x="346.95238095238096" y="220.5" font-size="11.5" font-weight="700" fill="#0f172a" text-anchor="start"><tspan>19</tspan></text>
<rect x="160" y="225" width="161.9" height="12" rx="2" fill="#3b82f6"/>
<text x="327.9047619047619" y="235.5" font-size="11.5" font-weight="700" fill="#0f172a" text-anchor="start"><tspan>17</tspan></text>
<rect x="160" y="240" width="200.0" height="12" rx="2" fill="#4338ca"/>
<text x="366" y="250.5" font-size="11.5" font-weight="700" fill="#0f172a" text-anchor="start"><tspan>21</tspan></text>
<text x="150" y="288" font-size="12" font-weight="700" fill="#0f172a" text-anchor="end"><tspan>照合済みの引用文</tspan></text>
<rect x="160" y="266" width="2.0" height="12" rx="2" fill="#f59e0b"/>
<text x="168" y="276.5" font-size="11.5" font-weight="700" fill="#0f172a" text-anchor="start"><tspan>0</tspan></text>
<rect x="160" y="281" width="133.3" height="12" rx="2" fill="#3b82f6"/>
<text x="299.3333333333333" y="291.5" font-size="11.5" font-weight="700" fill="#0f172a" text-anchor="start"><tspan>14</tspan></text>
<rect x="160" y="296" width="200.0" height="12" rx="2" fill="#4338ca"/>
<text x="366" y="306.5" font-size="11.5" font-weight="700" fill="#0f172a" text-anchor="start"><tspan>21</tspan></text>
<text x="580" y="64" font-size="12" font-weight="700" fill="#0f172a" text-anchor="end"><tspan>FRG の GN</tspan></text>
<rect x="590" y="42" width="200.0" height="12" rx="2" fill="#f59e0b"/>
<text x="796" y="52.5" font-size="11.5" font-weight="700" fill="#0f172a" text-anchor="start"><tspan>8</tspan></text>
<rect x="590" y="57" width="50.0" height="12" rx="2" fill="#3b82f6"/>
<text x="646" y="67.5" font-size="11.5" font-weight="700" fill="#0f172a" text-anchor="start"><tspan>2</tspan></text>
<rect x="590" y="72" width="100.0" height="12" rx="2" fill="#4338ca"/>
<text x="696" y="82.5" font-size="11.5" font-weight="700" fill="#0f172a" text-anchor="start"><tspan>4</tspan></text>
<text x="580" y="120" font-size="12" font-weight="700" fill="#0f172a" text-anchor="end"><tspan>FRG の深さ</tspan></text>
<rect x="590" y="98" width="200.0" height="12" rx="2" fill="#f59e0b"/>
<text x="796" y="108.5" font-size="11.5" font-weight="700" fill="#0f172a" text-anchor="start"><tspan>3</tspan></text>
<rect x="590" y="113" width="133.3" height="12" rx="2" fill="#3b82f6"/>
<text x="729.3333333333333" y="123.5" font-size="11.5" font-weight="700" fill="#0f172a" text-anchor="start"><tspan>2</tspan></text>
<rect x="590" y="128" width="200.0" height="12" rx="2" fill="#4338ca"/>
<text x="796" y="138.5" font-size="11.5" font-weight="700" fill="#0f172a" text-anchor="start"><tspan>3</tspan></text>
<text x="580" y="176" font-size="12" font-weight="700" fill="#0f172a" text-anchor="end"><tspan>X9（粒度）の件数</tspan></text>
<text x="592" y="164" font-size="11" font-weight="400" fill="#94a3b8" text-anchor="start" font-style="italic"><tspan>— 測っていない</tspan></text>
<rect x="590" y="169" width="200.0" height="12" rx="2" fill="#3b82f6"/>
<text x="796" y="179.5" font-size="11.5" font-weight="700" fill="#0f172a" text-anchor="start"><tspan>3</tspan></text>
<rect x="590" y="184" width="2.0" height="12" rx="2" fill="#4338ca"/>
<text x="598" y="194.5" font-size="11.5" font-weight="700" fill="#0f172a" text-anchor="start"><tspan>0</tspan></text>
<text x="580" y="232" font-size="12" font-weight="700" fill="#0f172a" text-anchor="end"><tspan>付録 D の違反コード</tspan></text>
<rect x="590" y="210" width="200.0" height="12" rx="2" fill="#f59e0b"/>
<text x="796" y="220.5" font-size="11.5" font-weight="700" fill="#0f172a" text-anchor="start"><tspan>7</tspan></text>
<rect x="590" y="225" width="28.6" height="12" rx="2" fill="#3b82f6"/>
<text x="624.5714285714286" y="235.5" font-size="11.5" font-weight="700" fill="#0f172a" text-anchor="start"><tspan>1</tspan></text>
<text x="592" y="250" font-size="11" font-weight="400" fill="#94a3b8" text-anchor="start" font-style="italic"><tspan>— 測っていない</tspan></text>
</svg>
